<?xml version="1.0" standalone="yes"?>

<svg version="1.1" viewBox="0.0 0.0 960.0 720.0" fill="none" stroke="none" stroke-linecap="square" stroke-miterlimit="10" xmlns="http://www.w3.org/2000/svg" xmlns:xlink="http://www.w3.org/1999/xlink"><clipPath id="p.0"><path d="m0 0l960.0 0l0 720.0l-960.0 0l0 -720.0z" clip-rule="nonzero"></path></clipPath><g clip-path="url(#p.0)"><path fill="#000000" fill-opacity="0.0" d="m0 0l960.0 0l0 720.0l-960.0 0z" fill-rule="nonzero"></path><path fill="#00ff00" d="m343.82578 365.71863l0 0c-43.982758 -73.971375 -15.998779 -171.77776 62.503937 -218.4567l0 0c37.698334 -22.416008 82.24301 -29.802742 123.83478 -20.535194c41.591675 9.26754 76.82349 34.430214 97.94476 69.95252l0 0c43.982727 73.971375 15.998779 171.77777 -62.503967 218.4567l0 0c-78.502686 46.678925 -177.79678 24.554047 -221.77951 -49.417328z" fill-rule="nonzero"></path><path stroke="#000000" stroke-width="1.0" stroke-linejoin="round" stroke-linecap="butt" d="m343.82578 365.71863l0 0c-43.982758 -73.971375 -15.998779 -171.77776 62.503937 -218.4567l0 0c37.698334 -22.416008 82.24301 -29.802742 123.83478 -20.535194c41.591675 9.26754 76.82349 34.430214 97.94476 69.95252l0 0c43.982727 73.971375 15.998779 171.77777 -62.503967 218.4567l0 0c-78.502686 46.678925 -177.79678 24.554047 -221.77951 -49.417328z" fill-rule="nonzero"></path><path fill="#000000" fill-opacity="0.0" d="m332.82404 298.685l83.1496 -49.448822l43.93701 73.88977l-83.1496 49.448822z" fill-rule="nonzero"></path><path fill="#000000" d="m406.71463 292.48462l11.603516 19.513855q3.7933044 6.3792725 1.8596802 13.582886q-1.9281921 7.18219 -8.37442 11.015747q-3.1828308 1.8928223 -6.6604614 2.4338684q-3.4776 0.54107666 -7.000641 -0.30880737q-3.5310059 -0.8633423 -6.185486 -2.4842834q-2.6410522 -1.6289062 -4.996887 -5.59079l-11.603516 -19.513855q-2.1890259 1.3018188 -3.8115234 0.9578247q-1.6170654 -0.365448 -2.5114746 -1.8695984q-0.9183655 -1.5444641 -0.44329834 -3.0995178q0.48849487 -1.5630798 3.0132751 -3.0645447l9.000763 -5.407257q2.4844666 -1.4775085 4.120392 -1.14151q1.6279602 0.32260132 2.5463257 1.8670654q0.918396 1.5444641 0.42443848 3.1289368q-0.49395752 1.5844727 -2.978424 3.0619812l-2.484497 1.4775085l11.962891 20.118195q1.8367615 3.0889282 5.807312 3.927185q3.9840088 0.83026123 7.610016 -1.3261108q2.4173584 -1.4375916 3.8470154 -3.8330383q1.4430542 -2.4034119 1.4923096 -5.3777466q0.010101318 -1.878479 -1.1638184 -3.8526917l-11.962891 -20.118195l-2.4844666 1.4775085q-2.484497 1.4775085 -4.1124268 1.1549377q-1.6145325 -0.33059692 -2.532898 -1.875061q-0.9183655 -1.5444336 -0.4378662 -3.1209412q0.4859619 -1.5979004 2.970459 -3.075409l9.062103 -5.334656q2.4844666 -1.4775391 4.0910034 -1.1603699q1.6199646 0.30917358 2.53833 1.8536072q0.8944092 1.5041809 0.4298706 3.1075134q-0.45907593 1.5819397 -2.6347046 2.875763z" fill-rule="nonzero"></path><path fill="#000000" fill-opacity="0.0" d="m391.4448 280.46567l176.53543 -104.976364l36.629944 61.5748l-176.53543 104.976395z" fill-rule="nonzero"></path><path fill="#000000" d="m442.24008 311.4889q0.26501465 0.07873535 0.37686157 0.26672363q0.10385132 0.17459106 0.013885498 0.5734863q-0.8678589 2.6975098 -3.6075745 4.3266907q-2.739685 1.6291504 -5.569458 0.875885q-2.8163452 -0.76123047 -4.8533936 -4.185486l-6.4306946 -10.809967l-2.3099365 1.3735962q-0.57751465 0.3433838 -0.8970337 -0.1937561l-0.9985657 -1.6785583q-0.31951904 -0.5371399 0.2579651 -0.8805542l2.3099365 -1.3735962l-2.4844055 -4.1762695q-0.34350586 -0.5774231 0.23397827 -0.9208374l2.309967 -1.3735962q0.5372009 -0.319458 0.8807068 0.2579956l2.4844055 4.1762695l5.237671 -3.114563q0.57748413 -0.3434143 0.8970032 0.19372559l0.9985657 1.6785583q0.31954956 0.5371399 -0.2579651 0.8805542l-5.237671 3.114563l6.382782 10.729401q1.2301941 2.0679932 2.7799683 2.564392q1.5497742 0.4963684 3.0942078 -0.4220276q1.5444336 -0.918396 1.8734741 -2.1684265q0.17922974 -0.61557007 0.76260376 -0.3989563l1.7527161 0.6847534zm12.4262085 -4.5351257l-7.869934 4.67984q-0.5372009 0.3194275 -0.8327637 -0.1774292l-1.0544739 -1.7725525q-0.29559326 -0.4968567 0.24160767 -0.8163147l2.2696533 -1.3496399l-8.787262 -14.771393l-2.2696533 1.3496399q-0.5372009 0.319458 -0.8247986 -0.16397095l-1.062439 -1.7859802q-0.28759766 -0.48342896 0.24960327 -0.80288696l5.1973877 -3.0906067q0.49691772 -0.2955017 0.78448486 0.18792725l10.137329 17.040833l2.1756592 -1.2937622q0.5371704 -0.3194275 0.8327637 0.1774292l1.0544739 1.7725525q0.29556274 0.4968567 -0.24163818 0.8163147zm-18.028625 -25.01892q1.1003113 0.2909851 1.6674805 1.2444153q0.5592041 0.94000244 0.27371216 2.0187073q-0.29351807 1.0653076 -1.2470398 1.6323242q-0.940094 0.559021 -2.016449 0.3083191q-1.0843506 -0.26416016 -1.6435242 -1.2041321q-0.5671997 -0.9534302 -0.29766846 -2.059021q0.26953125 -1.1055603 1.2096252 -1.6645813q0.9535217 -0.5670166 2.0538635 -0.2760315zm43.654266 9.780701l-3.9215393 2.3319397q-1.7727661 1.0541382 -2.8032837 -0.6781311l-6.454651 -10.85025q-1.421936 -2.3902893 -3.3597717 -3.0194702q-1.9458313 -0.64263916 -4.1752014 0.68304443q-3.169464 1.8847351 -3.392456 5.544037q-0.07107544 0.36947632 -0.0019836426 1.2191467l6.750244 11.347107l2.1756287 -1.2937317q0.5372009 -0.319458 0.8327942 0.17739868l1.0544739 1.772583q0.29556274 0.4968567 -0.24163818 0.8162842l-7.869934 4.67984q-0.5372009 0.319458 -0.8327637 -0.17739868l-1.0544739 -1.772583q-0.29559326 -0.4968567 0.24160767 -0.8162842l2.2696533 -1.3496704l-8.787262 -14.771362l-2.2696533 1.3496399q-0.5372009 0.3194275 -0.8247986 -0.16400146l-1.0624695 -1.7859802q-0.28756714 -0.48342896 0.24963379 -0.80288696l4.82135 -2.8669739q0.5372009 -0.319458 0.82476807 0.16397095l1.5890198 2.8544922l0.12084961 -0.071899414q0.015899658 -4.8631897 4.514923 -7.538513q3.2903137 -1.956604 6.3019714 -1.1115417q3.0170898 0.8236389 5.0225525 4.103119l6.3268433 10.6354065l2.3099365 -1.3736267q0.5372009 -0.3194275 0.8327637 0.1774292l1.0544739 1.7725525q0.29559326 0.4968567 -0.24160767 0.8163147zm16.243073 -22.838593l-14.853485 8.832611q2.1982117 3.3284302 5.3016663 3.9916687q3.1034546 0.663208 5.614868 -0.8302002q2.5248108 -1.5013733 3.6799011 -3.6243896q1.160553 -2.1444092 1.163208 -3.5457764q0.08810425 -0.6159363 0.6801758 -0.5680542l1.7643127 0.45968628q0.3989563 0.08999634 0.5108032 0.27798462q0.111816406 0.18798828 0.09954834 0.59524536q-0.020263672 0.39379883 -0.23028564 1.3549194q-0.21002197 0.9610901 -0.78622437 2.3763123q-0.584198 1.4017639 -1.9434204 2.9371643q-1.3457642 1.5274048 -3.2528076 2.661438q-4.324463 2.5715027 -8.9322815 1.4576416q-4.5944214 -1.1218567 -7.4542847 -5.9292603q-2.8598633 -4.807434 -1.6260376 -9.304138q1.2258606 -4.510132 5.4025574 -6.993805q4.190155 -2.4916687 8.194336 -1.2006226q4.0096436 1.2696228 6.725708 5.835327q0.10385132 0.17456055 0.19970703 0.33572388q0.31951904 0.5371399 -0.2579651 0.8805237zm-4.340973 -0.8180847q-1.6466675 -2.492981 -4.0400696 -3.123932q-2.4013977 -0.6444092 -4.872528 0.8250427q-2.4710999 1.4694214 -3.4050598 3.9335938q-0.94195557 2.450714 0.39187622 5.4569397l11.925781 -7.0916443zm22.377197 3.2725525l-7.869934 4.67984q-0.5372009 0.319458 -0.8327637 -0.17739868l-1.0544739 -1.772583q-0.29559326 -0.4968567 0.24160767 -0.8162842l2.2696533 -1.3496399l-8.787262 -14.771393l-2.2696533 1.3496399q-0.5372009 0.319458 -0.8247986 -0.16397095l-1.0624695 -1.7860107q-0.28756714 -0.48342896 0.24963379 -0.8028717l4.82135 -2.8670044q0.5372009 -0.31944275 0.82476807 0.1639862l3.067566 5.156555l0.12088013 -0.0718689q-0.27056885 -0.7298584 -0.2189331 -2.3239594q0.06506348 -1.6020813 0.50408936 -2.8811493q0.43103027 -1.292511 1.7288818 -2.9004974q1.3032837 -1.6294098 3.4117737 -2.8832245q0.5372009 -0.31944275 0.8567505 0.2177124l1.302124 2.1888428q0.31951904 0.5371399 -0.21768188 0.85658264l-0.8729248 0.519104q-3.5455017 2.1083221 -4.3039856 5.631546q-0.7449951 3.5152588 0.97250366 6.402405l4.12204 6.9291077l2.1756287 -1.2937317q0.53723145 -0.319458 0.8327637 0.17739868l1.0545044 1.772583q0.29553223 0.4968567 -0.24163818 0.8162842zm29.214355 -17.372223l-3.5858154 2.1322632q-1.7727661 1.0541687 -2.8032837 -0.6781006l-1.2541504 -2.1082916l-0.080566406 0.047927856q-0.5373535 5.9731445 -5.5601196 8.95993q-2.9815063 1.7729187 -5.793762 1.3546753q-2.8203125 -0.43167114 -4.3860474 -3.0636597q-2.0130615 -3.3840027 -0.014526367 -6.7175293q2.0039673 -3.3549194 7.161072 -6.421585l3.4649048 -2.0604095l-0.29559326 -0.4968567q-3.067566 -5.156555 -8.426086 -1.970108q-2.5248413 1.5013885 -3.3519287 2.6476593q-0.835083 1.132843 -1.1293945 1.7077789q-0.30230713 0.5615082 -0.4616089 0.87438965q-0.3222046 0.86421204 -0.8518677 0.61564636l-2.0097046 -0.75006104q-0.49517822 -0.16001892 -0.31085205 -0.7059021q0.15509033 -1.3284302 1.8329468 -3.4895782q1.6697998 -2.174591 4.6378174 -3.9395142q8.6623535 -5.151016 13.567261 3.094101l5.6957397 9.574539l2.3099365 -1.3735962q0.4968872 -0.29548645 0.79248047 0.20137024l1.0544434 1.7725677q0.29559326 0.4968567 -0.20129395 0.79234314zm-11.382446 -6.0839233l-3.2634277 1.9406128q-2.390564 1.421524 -3.8100586 2.6110382q-1.4141235 1.1681061 -2.0200806 2.6555328q-0.6005249 1.4660034 0.26220703 2.9162903q0.85479736 1.4368591 2.5744019 1.6686401q1.7330322 0.2237854 3.626648 -0.9022522q4.002136 -2.3798523 4.619446 -7.546158l-1.9891357 -3.3437042zm23.466187 -1.1016693l-7.869934 4.67984q-0.5371704 0.31944275 -0.8327637 -0.17741394l-1.0545044 -1.7725677q-0.29553223 -0.4968567 0.24163818 -0.81629944l2.2696533 -1.3496399l-8.787231 -14.771393l-2.2696533 1.3496552q-0.53723145 0.31944275 -0.8248291 -0.1639862l-1.062439 -1.7859955q-0.28759766 -0.48342896 0.24963379 -0.8028717l4.82135 -2.8670044q0.5371704 -0.31944275 0.82476807 0.1639862l3.067566 5.156555l0.12084961 -0.0718689q-0.27056885 -0.72987366 -0.2189331 -2.3239594q0.06506348 -1.6020813 0.50408936 -2.8811646q0.43103027 -1.292511 1.7288818 -2.9004974q1.3032837 -1.6293945 3.4118042 -2.8832092q0.5371704 -0.31944275 0.8567505 0.21769714l1.302063 2.188858q0.31958008 0.5371399 -0.21765137 0.85658264l-0.8729248 0.51908875q-3.5455322 2.1083221 -4.303955 5.6315613q-0.74505615 3.5152588 0.97247314 6.4023895l4.1220703 6.929123l2.1755981 -1.293747q0.53723145 -0.31944275 0.8327637 0.17741394l1.0545044 1.7725677q0.29559326 0.4968567 -0.24163818 0.81629944zm17.889893 -11.256256q-0.65808105 0.39131165 -1.6895142 -0.39511108l-15.858215 -12.29364l-2.2696533 1.3496399q-0.49694824 0.29548645 -0.78448486 -0.1879425l-1.0625 -1.7859955q-0.28759766 -0.48342896 0.20935059 -0.7789154l7.467041 -4.440262q0.5371704 -0.31944275 0.82476807 0.1639862l1.062439 1.7859955q0.28759766 0.48342896 -0.24957275 0.8028717l-1.6921997 1.0062561l13.642212 10.830048l0.080566406 -0.047927856l-3.3682861 -16.939392l-1.8533325 1.1020813q-0.4968872 0.29548645 -0.78448486 -0.1879425l-1.062439 -1.7859955q-0.28759766 -0.48342896 0.20928955 -0.7789154l7.668518 -4.5600586q0.4968872 -0.2954712 0.78448486 0.1879425l1.062439 1.7859955q0.28759766 0.48342896 -0.20928955 0.7789154l-2.3099976 1.3736115l4.6604614 24.551468q0.82440186 4.472595 0.35113525 7.008209q-0.46533203 2.549057 -3.003601 4.058426q-2.538208 1.5093689 -5.3098755 0.97605896q-0.66400146 -0.16871643 -0.5602417 -0.6667023l0.22979736 -1.9363556q0.20831299 -0.50561523 0.7281494 -0.48750305q1.4516602 0.20928955 2.8081055 -0.5973053q1.369873 -0.8145752 1.6970215 -2.281662q0.33520508 -1.4536438 -0.17419434 -4.204773l-0.70666504 -3.7245483l-0.53723145 0.31944275z" fill-rule="nonzero"></path><path stroke="#000000" stroke-width="2.062838146578045" stroke-linecap="butt" d="m429.9844 325.81918l159.45767 -94.82112" fill-rule="nonzero"></path><path fill="#000000" fill-opacity="0.0" d="m419.81046 330.30597l160.56693 -99.937l23.874023 38.330704l-160.56693 99.93701z" fill-rule="nonzero"></path><path fill="#000000" d="m461.88745 341.85626l-4.6959534 2.92276q-0.25204468 0.15689087 -0.40075684 -0.081848145l-0.6525879 -1.04776q-0.14868164 -0.23873901 0.10336304 -0.39559937l1.366333 -0.85043335l-6.319397 -10.146057l-0.026519775 0.01651001l2.115448 12.026428q0.14120483 0.7586975 -0.5220642 1.1715393q-0.6499939 0.40457153 -1.2687683 -0.056915283l-9.862488 -7.2046814l-0.039794922 0.024780273l6.319397 10.146057l1.366333 -0.85040283q0.26531982 -0.16513062 0.41400146 0.0736084l0.6526184 1.04776q0.14868164 0.2387085 -0.11663818 0.4038391l-4.6827087 2.9145203q-0.2652893 0.16513062 -0.41400146 -0.0736084l-0.6525879 -1.04776q-0.14868164 -0.2387085 0.11663818 -0.4038391l1.5387878 -0.9577637l-7.211548 -11.57843l-1.5387878 0.95773315q-0.26531982 0.16513062 -0.41400146 -0.07357788l-0.64434814 -1.0345154q-0.1569519 -0.25198364 0.10836792 -0.41711426l3.1306458 -1.9485168q0.6897888 -0.4293518 1.3846436 0.095214844l7.605957 5.4436035l2.5576782 1.9785156l0.09283447 -0.057800293q-0.42086792 -1.9465637 -0.64920044 -3.111145l-1.528595 -9.281342q-0.1642456 -0.85479736 0.53881836 -1.2923889l3.1173706 -1.9402771q0.25204468 -0.15686035 0.40899658 0.09512329l0.64434814 1.0345154q0.14868164 0.2387085 -0.10336304 0.39559937l-1.5653076 0.97424316l7.211548 11.578461l1.5653076 -0.9742737q0.25204468 -0.15686035 0.40075684 0.081848145l0.6525879 1.0477905q0.14868164 0.2387085 -0.10336304 0.39559937zm12.012909 -7.4768677l-1.7775574 1.1063538q-0.8755188 0.5449219 -1.4124451 -0.31713867l-0.64434814 -1.0345154l-0.039794922 0.024780273q-0.20532227 2.9804382 -2.6992188 4.532654q-1.459198 0.9082031 -2.8719177 0.73843384q-1.4209595 -0.18304443 -2.2304993 -1.4827881q-1.040863 -1.6711121 -0.06903076 -3.3618164q0.9718323 -1.6907349 3.5187988 -3.2759705l1.7112427 -1.0650635l-0.1569519 -0.25198364q-1.5860596 -2.5464783 -4.2391357 -0.89520264q-1.2337036 0.7678528 -1.6421509 1.353363q-0.40344238 0.56396484 -0.5513611 0.85849q-0.1479187 0.29449463 -0.21774292 0.44839478q-0.14816284 0.44189453 -0.426239 0.3204956l-1.0164795 -0.36117554q-0.231781 -0.0765686 -0.15847778 -0.3430786q0.077301025 -0.67385864 0.8874817 -1.7670288q0.81015015 -1.0931702 2.2826233 -2.0096436q4.284729 -2.666809 6.8207397 1.4048767l2.940796 4.7215576l1.1408386 -0.7100525q0.23876953 -0.1486206 0.39572144 0.10336304l0.54519653 0.8753357q0.14871216 0.23873901 -0.09008789 0.38735962zm-5.7547913 -2.9148865l-1.605133 0.99902344q-1.1806335 0.73480225 -1.8889465 1.3413086q-0.69503784 0.5982361 -0.9828491 1.3479004q-0.28781128 0.7496643 0.15826416 1.4658508q0.4378357 0.7029419 1.3106384 0.803833q0.8645325 0.087677 1.8063965 -0.49853516q1.976532 -1.2302246 2.2259521 -3.8147888l-1.0243225 -1.6445923zm18.408417 -4.960724l-1.1010437 0.6852722q-0.63674927 0.3963318 -1.4842834 0.040405273l-6.648102 -2.6349487l-0.83657837 3.0604858l1.4455872 2.320984l1.0877686 -0.6770325q0.26531982 -0.16513062 0.42227173 0.08685303l0.54519653 0.8753662q0.14871216 0.2387085 -0.116607666 0.4038391l-3.900055 2.4273987q-0.2652893 0.16513062 -0.41400146 -0.0736084l-0.54519653 -0.8753357q-0.1569519 -0.25198364 0.10836792 -0.41711426l1.1275635 -0.70181274l-7.4098206 -11.8967285l-1.1275635 0.7017822q-0.2652893 0.16513062 -0.41400146 -0.0736084l-0.54519653 -0.8753357q-0.1569519 -0.25198364 0.10836792 -0.41711426l2.5734863 -1.6017456q0.23876953 -0.1486206 0.39572144 0.10336304l5.6833496 9.124817l1.5913391 -5.720337l-0.72961426 0.45410156q-0.25204468 0.15686035 -0.40072632 -0.081848145l-0.54519653 -0.8753662q-0.1569519 -0.25198364 0.09509277 -0.408844l3.9000244 -2.4273987q0.25204468 -0.15686035 0.40899658 0.09512329l0.54519653 0.8753357q0.14871216 0.23873901 -0.10333252 0.39559937l-1.3132935 0.81741333l-1.1308899 3.74057l6.9875183 2.7365723l0.88879395 -0.5531616q0.23876953 -0.1486206 0.39572144 0.10336304l0.54522705 0.8753357q0.14868164 0.23873901 -0.09008789 0.38735962zm7.742737 -11.481415l-7.335785 4.565796q1.1286926 1.6348267 2.6802979 1.9389954q1.5649109 0.29589844 2.798584 -0.47195435q1.2469482 -0.7760925 1.8053284 -1.8598022q0.5583496 -1.0836792 0.54956055 -1.7775574q0.03527832 -0.29803467 0.33010864 -0.29751587l0.8908386 0.21853638q0.19372559 0.045043945 0.2515564 0.13790894q0.05783081 0.09283447 0.055847168 0.2965088q0.0029907227 0.18215942 -0.098846436 0.66885376q-0.08856201 0.47842407 -0.3713684 1.2065735q-0.2778015 0.7066345 -0.9350281 1.4837646q-0.6572571 0.77716064 -1.5990906 1.3633728q-2.1357422 1.3292847 -4.457306 0.82336426q-2.308319 -0.51416016 -3.7869568 -2.8881836q-1.4786682 -2.374054 -0.9100952 -4.6235657q0.57354736 -2.2710266 2.6429443 -3.559021q2.0694275 -1.2879944 4.084381 -0.6832886q2.0066833 0.5914612 3.4109802 2.8461304q0.049591064 0.079589844 0.10739136 0.17242432q0.16522217 0.2652588 -0.113342285 0.43865967zm-2.1826477 -0.3715515q-0.8510742 -1.2186584 -2.0515442 -1.5205383q-1.20047 -0.30187988 -2.434143 0.4659729q-1.2204285 0.7595825 -1.6663818 1.9941711q-0.4459839 1.2345886 0.26220703 2.7262573l5.889862 -3.665863zm17.604462 -2.5646973l-3.9000244 2.4273987q-0.26531982 0.16513062 -0.41400146 -0.0736084l-0.54522705 -0.8753357q-0.1569519 -0.25198364 0.10836792 -0.41711426l1.1275635 -0.70181274l-4.5433655 -7.294525l-1.1275635 0.7017822q-0.2652893 0.16513062 -0.41400146 -0.0736084l-0.54519653 -0.8753357q-0.1569519 -0.25198364 0.10836792 -0.41711426l2.5734863 -1.6017456q0.23876953 -0.1486206 0.39572144 0.10336304l5.237274 8.40863l1.0877686 -0.6770325q0.2652893 -0.16513062 0.4222412 0.08685303l0.54522705 0.8753662q0.14868164 0.23873901 -0.11663818 0.4038391zm-9.2743225 -12.319031q0.54641724 0.13842773 0.84381104 0.61590576q0.28912354 0.46417236 0.16400146 1.0021667q-0.13339233 0.52471924 -0.6109314 0.82196045q-0.46429443 0.28897095 -1.0074463 0.18533325q-0.538147 -0.1251831 -0.8272705 -0.58935547q-0.2973938 -0.47747803 -0.18054199 -1.028717q0.13012695 -0.5595093 0.5944214 -0.8484802q0.47756958 -0.2972412 1.0239563 -0.15881348zm17.239868 5.9257507q0.14245605 0.021759033 0.20025635 0.11462402q0.057861328 0.09283447 -4.8828125E-4 0.2947693q-0.39312744 1.348938 -1.7594604 2.1993408q-1.3530884 0.8421631 -2.7687988 0.49023438q-1.4157104 -0.35195923 -2.4648132 -2.0363464l-3.3290405 -5.3449097l-1.1408386 0.7100525q-0.2918396 0.18164062 -0.45706177 -0.083618164l-0.52041626 -0.8355408q-0.16522217 -0.2652588 0.12661743 -0.4468994l1.1408386 -0.7100525l-1.2803955 -2.055725q-0.17346191 -0.27853394 0.10510254 -0.4519043l1.1408386 -0.7100525q0.2652893 -0.16513062 0.43878174 0.1133728l1.2803955 2.055725l2.5867615 -1.6099854q0.2918396 -0.18164062 0.45703125 0.083618164l0.5204468 0.8355408q0.16522217 0.2652588 -0.12664795 0.4468994l-2.5867615 1.6100159l3.3042908 5.3051147q0.6278076 1.0079956 1.4092407 1.257782q0.786438 0.22827148 1.5558472 -0.25061035q0.7694092 -0.47888184 0.9145508 -1.1029358q0.08331299 -0.30950928 0.3796997 -0.21789551l0.87402344 0.339386zm12.797058 -6.842224q-0.33166504 0.2064209 -0.84454346 -0.17373657l-8.057251 -5.990906l-1.1275635 0.70181274q-0.23876953 0.1486206 -0.38745117 -0.09011841l-0.54522705 -0.8753357q-0.15698242 -0.25201416 0.081848145 -0.40063477l3.6877441 -2.2952576q0.26531982 -0.16513062 0.42230225 0.08685303l0.545166 0.8753357q0.14874268 0.23873901 -0.11657715 0.40386963l-0.82244873 0.51190186l6.930359 5.2751465l0.039794922 -0.024780273l-1.8629761 -8.429108l-0.91534424 0.56970215q-0.25201416 0.15686035 -0.4006958 -0.081848145l-0.54522705 -0.8753662q-0.15692139 -0.25198364 0.09509277 -0.408844l3.7939453 -2.3613586q0.23876953 -0.14859009 0.39569092 0.103393555l0.54522705 0.8753357q0.14868164 0.23873901 -0.09008789 0.38735962l-1.1408081 0.7100525l2.5689697 12.222626q0.46844482 2.229828 0.2510376 3.5062256q-0.21746826 1.2763977 -1.4644165 2.0524902q-1.2469482 0.77612305 -2.6363525 0.5550537q-0.33117676 -0.088378906 -0.29766846 -0.33007812l0.11260986 -0.9718933q0.09484863 -0.2614746 0.34161377 -0.24945068q0.7304077 0.07913208 1.4069214 -0.34191895q0.6765747 -0.42108154 0.8251953 -1.1577454q0.15692139 -0.7233887 -0.13903809 -2.0851746l-0.38458252 -1.8587341l-0.2652588 0.16513062zm15.534363 -11.122559q-0.53552246 2.3025513 -2.7640991 3.6896362q-2.215332 1.3788147 -4.5318604 0.8514099q-2.3033447 -0.53570557 -3.765442 -2.8832092q-1.470398 -2.3607788 -0.88360596 -4.6400757q0.586853 -2.2792664 2.7756348 -3.641571q2.2020874 -1.370575 4.502136 -0.86968994q2.2999878 0.5009155 3.7539062 2.8351746q1.4538574 2.334259 0.9133301 4.658325zm-9.341919 0.60601807q1.0408325 1.6711121 2.666809 2.094635q1.6259766 0.42352295 3.0321045 -0.45166016q1.4194336 -0.88342285 1.7567139 -2.5289001q0.3373413 -1.6454773 -0.7034912 -3.3165894q-1.0408325 -1.6711121 -2.671814 -2.07312q-1.6177368 -0.41027832 -3.01062 0.45666504q-1.3795776 0.8586731 -1.751709 2.5073853q-0.35882568 1.6404724 0.68200684 3.3115845zm23.721375 -7.7890015l-1.7775879 1.1063538q-0.8754883 0.5449219 -1.4124146 -0.31713867l-0.46258545 -0.7427368l-0.066345215 0.041290283q0.2546997 2.2708435 -2.0800781 3.7239685q-1.6315918 1.015564 -3.1897583 0.6418152q-1.5448608 -0.381958 -2.5792236 -1.9835205l-3.2711792 -5.252075l-1.1541138 0.71832275q-0.2520752 0.15686035 -0.40075684 -0.08187866l-0.545166 -0.8753357q-0.15698242 -0.25198364 0.09509277 -0.4088745l1.9500122 -1.2136841q0.8754883 -0.5449219 1.4124756 0.3171692l3.3372803 5.3581543q0.73516846 1.1803894 1.7103882 1.4752502q0.9751587 0.29486084 2.076233 -0.3904419q1.4857178 -0.92471313 1.6623535 -2.5621948q0.08227539 -0.69537354 -0.016845703 -0.8545227l-3.4942627 -5.6101685l-1.1010132 0.6852722q-0.2520752 0.15689087 -0.40075684 -0.081848145l-0.545166 -0.8753357q-0.15698242 -0.25201416 0.09509277 -0.4088745l2.5203857 -1.5687256q0.2520752 -0.15686035 0.40899658 0.09512329l5.2373047 8.40863l1.1408081 -0.7100525q0.26531982 -0.16513062 0.4222412 0.08685303l0.54522705 0.8753662q0.14868164 0.2387085 -0.11663818 0.4038391zm5.9679565 -3.714447l-3.9000244 2.4273987q-0.26531982 0.16513062 -0.41400146 -0.0736084l-0.54522705 -0.8753357q-0.15698242 -0.25201416 0.1083374 -0.41714478l1.1275635 -0.7017822l-4.543335 -7.2945557l-1.1275635 0.70181274q-0.26531982 0.16513062 -0.41400146 -0.0736084l-0.54522705 -0.8753357q-0.15692139 -0.25201416 0.10839844 -0.41714478l2.3877563 -1.486145q0.26531982 -0.16513062 0.4222412 0.08685303l1.5860596 2.5464783l0.066345215 -0.041290283q-0.15344238 -0.3645935 -0.13726807 -1.1660767q0.016235352 -0.80148315 0.22271729 -1.4453125q0.19818115 -0.657074 0.83062744 -1.4740295q0.6325073 -0.81692505 1.6671753 -1.4609375q0.26531982 -0.16513062 0.430542 0.100128174l0.67736816 1.0875549q0.16522217 0.2652588 -0.100097656 0.4303894l-0.4244995 0.26419067q-1.7510376 1.0898743 -2.0968628 2.8694458q-0.34075928 1.7580872 0.5430908 3.1772156l2.1312866 3.421814l1.0877686 -0.6770325q0.2652588 -0.16513062 0.4222412 0.08685303l0.545166 0.8753357q0.14874268 0.23873901 -0.11657715 0.40386963zm9.027161 -5.4160767q-1.366333 0.85040283 -2.489441 0.85006714q-1.1313477 -0.01361084 -1.6244507 -0.3324585l-0.039794922 0.024780273q0.6593628 0.9699402 0.7006836 1.0362549q0.16516113 0.2652588 -0.11340332 0.43862915l-0.70306396 0.43759155q-0.25201416 0.15689087 -0.41723633 -0.10836792l-1.8999634 -3.0504456q-0.16522217 -0.2652588 0.08685303 -0.42211914l0.79589844 -0.49539185q0.29187012 -0.18164062 0.45703125 0.083618164l0.24786377 0.39788818q0.5789795 0.48623657 1.5511475 0.5989075q1.1626587 0.12295532 2.3167114 -0.5953369q2.2816772 -1.420105 1.2904053 -3.0116577q-0.33868408 -0.5437622 -1.1819458 -0.47903442q-0.83825684 0.04321289 -1.8939819 0.38745117q-1.0425415 0.33596802 -2.118042 0.6188965q-1.0704956 0.26138306 -2.1037598 0.021087646q-1.0282593 -0.26184082 -1.6312866 -1.230011q-0.8260498 -1.326294 -0.3583374 -2.703247q0.46777344 -1.3769836 1.9667358 -2.309967q2.0163574 -1.2549744 3.6270752 -0.61950684l0.039794922 -0.024749756q-0.5023804 -0.71795654 -0.51068115 -0.7312317q-0.16516113 -0.2652588 0.100097656 -0.4303894l0.6500244 -0.40454102q0.26531982 -0.16513062 0.430542 0.100128174l1.7595215 2.8249817q0.16522217 0.2652588 -0.100097656 0.4303589l-0.7959595 0.49539185q-0.29180908 0.18164062 -0.45703125 -0.083618164l-0.17346191 -0.27850342q-0.34698486 -0.55703735 -1.314148 -0.69125366q-0.97540283 -0.14746094 -1.9968262 0.48828125q-1.0214844 0.6357422 -1.3275146 1.4151917q-0.3060913 0.77941895 0.12347412 1.4690857q0.42126465 0.6764221 1.2975464 0.6647339q0.88134766 -0.033203125 1.928833 -0.39071655q1.0474854 -0.3574829 2.1279907 -0.66189575q1.0805664 -0.30444336 2.1055298 -0.077423096q1.0300293 0.20553589 1.6990967 1.2798157q0.6691284 1.0743103 0.26098633 2.487793q-0.41644287 1.4002686 -2.3134155 2.5809326zm5.813965 -5.9007263q0.45202637 0.10513306 0.7081299 0.51626587q0.24780273 0.39788818 0.1427002 0.8497925q-0.10510254 0.4519043 -0.5162964 0.7078552q-0.39801025 0.24768066 -0.86328125 0.15081787q-0.4520874 -0.10513306 -0.69989014 -0.50302124q-0.25610352 -0.4111328 -0.15100098 -0.8630371q0.1184082 -0.46017456 0.5163574 -0.7078552q0.41125488 -0.25595093 0.86328125 -0.15081787z" fill-rule="nonzero"></path></g></svg>

